<?xml version="1.0" standalone="no"?>
<!DOCTYPE svg PUBLIC "-//W3C//DTD SVG 20010904//EN"
 "http://www.w3.org/TR/2001/REC-SVG-20010904/DTD/svg10.dtd">
<svg version="1.0" xmlns="http://www.w3.org/2000/svg"
 width="32pt" height="32pt" viewBox="0 0 800.000000 800.000000"
 preserveAspectRatio="xMidYMid meet">

<g transform="translate(0.000000,800.000000) scale(0.100000,-0.100000)"
fill="#000000" stroke="none">
<path d="M0 4000 l0 -4000 4000 0 4000 0 0 4000 0 4000 -4000 0 -4000 0 0
-4000z m4071 2036 c10 -11 23 -40 29 -64 9 -35 8 -49 -6 -78 -9 -19 -26 -41
-37 -49 l-21 -14 23 -106 c72 -344 209 -575 318 -534 84 31 172 136 261 313
l50 100 -20 27 c-14 19 -19 35 -14 53 16 65 82 85 133 42 25 -22 26 -27 18
-62 -8 -31 -18 -43 -47 -57 -35 -17 -36 -19 -44 -90 -13 -129 -2 -318 23 -383
3 -9 0 -14 -8 -12 -10 2 -14 -7 -12 -32 2 -47 49 -90 98 -90 38 0 40 2 25 31
-9 16 -7 19 10 19 31 0 129 70 187 133 27 31 79 99 115 153 62 92 65 99 51
120 -31 48 -13 128 36 157 16 9 48 17 70 17 82 0 116 -74 70 -150 -23 -38 -42
-52 -77 -60 -19 -4 -30 -22 -56 -90 -51 -132 -193 -541 -201 -577 -4 -18 -11
-35 -15 -38 -5 -3 -32 10 -61 30 -132 90 -365 120 -949 120 -249 0 -601 -17
-744 -36 -100 -13 -195 -43 -224 -69 -19 -18 -69 -43 -82 -41 -2 1 -4 16 -4
35 0 19 -3 33 -6 31 -4 -2 -28 60 -54 138 -27 78 -62 178 -80 222 -53 132 -89
246 -80 255 25 24 44 12 92 -55 65 -93 196 -231 251 -267 26 -16 60 -29 80
-29 20 -1 28 -3 19 -6 -16 -4 -23 -21 -19 -45 2 -15 -50 -8 -89 12 -42 21 -92
67 -154 140 l-38 45 40 -58 c43 -64 168 -197 185 -197 6 0 7 -3 4 -6 -9 -10
-58 23 -89 59 l-26 32 14 -55 c12 -50 49 -100 73 -100 4 0 13 10 20 23 11 22
11 22 5 -3 -8 -31 -7 -31 -33 -33 -13 -1 -20 -6 -17 -14 3 -7 0 -13 -7 -14 -9
0 -9 -2 1 -6 6 -2 10 -9 6 -14 -8 -14 12 -11 151 24 127 32 130 33 113 52 -17
17 -19 17 -37 1 -15 -14 -24 -15 -40 -6 -43 23 -16 87 33 78 21 -4 23 -2 16
21 -4 15 -2 36 5 51 40 82 62 335 36 428 -6 23 -13 42 -14 42 -1 0 0 -72 2
-161 2 -108 -1 -175 -9 -205 -14 -49 -63 -124 -82 -124 -6 0 -2 10 10 23 12
13 22 26 22 28 0 10 -35 6 -50 -5 -8 -6 -5 3 7 19 39 56 55 132 60 285 5 176
-3 234 -35 238 -27 4 -62 47 -62 77 0 27 33 72 60 80 10 3 33 -1 50 -10 56
-29 62 -96 13 -135 -16 -12 -20 -20 -11 -20 8 0 29 -32 49 -72 66 -139 174
-279 241 -314 86 -44 161 14 243 189 39 81 92 257 109 362 l12 70 -34 32 c-32
31 -34 36 -30 83 6 60 42 117 78 123 41 7 83 -4 101 -27z m-1298 -436 c45 -39
53 -81 27 -136 -17 -34 -27 -43 -54 -48 -71 -14 -136 44 -136 120 0 91 92 127
163 64z m1474 -770 c212 -14 255 -21 249 -36 -3 -8 -2 -14 2 -14 4 0 8 -10 9
-21 2 -21 0 -22 -105 -16 -332 20 -665 16 -934 -9 l-67 -7 3 27 c2 14 -2 26
-8 26 -6 0 -4 5 4 9 8 5 58 14 110 20 234 29 515 37 737 21z m-1181 -125 c-1
-19 -5 -23 -20 -19 -13 4 -17 2 -14 -7 3 -8 13 -13 22 -13 28 3 18 -14 -19
-32 -19 -9 -35 -20 -35 -25 0 -17 -19 -9 -31 12 -17 32 4 67 54 89 23 11 43
20 43 20 1 0 1 -11 0 -25z m1935 -6 c43 -21 54 -51 30 -80 l-17 -21 -52 33
c-31 19 -48 35 -41 39 12 8 12 17 -3 43 -8 16 -6 17 19 11 15 -4 44 -15 64
-25z m-670 -1 l137 -22 -24 -19 c-30 -24 -32 -74 -3 -111 11 -14 17 -26 12
-26 -4 0 -215 -1 -468 -2 l-460 -3 22 22 c31 30 38 65 19 102 -31 60 -101 54
-140 -12 -14 -23 -26 -36 -26 -29 0 22 28 69 47 77 21 9 103 23 183 31 30 3
60 7 65 9 6 2 120 4 255 4 207 1 266 -2 381 -21z m-783 -56 c18 -23 15 -59 -8
-82 -46 -46 -122 -3 -99 55 6 17 8 15 8 -10 1 -17 6 -36 13 -43 25 -25 78 -8
78 26 0 10 -7 12 -27 7 -15 -3 -32 -7 -38 -8 -5 -1 -12 11 -13 28 -6 51 52 70
86 27z m1003 -23 c16 -39 -9 -79 -49 -78 -26 1 -26 1 6 10 25 8 32 15 32 35 0
21 -4 25 -17 19 -10 -3 -30 -9 -45 -12 -29 -6 -33 -12 -20 -29 4 -5 0 -1 -10
8 -21 24 -10 69 22 85 31 15 65 -1 81 -38z m38 -22 c0 -18 -2 -17 -11 8 -6 17
-16 37 -22 45 -6 9 -1 5 12 -8 12 -13 22 -33 21 -45z m-1269 -2 c7 -9 10 -19
6 -22 -4 -4 -11 -1 -15 6 -12 18 -25 -4 -16 -27 6 -16 5 -16 -10 -1 -14 13
-15 21 -6 38 14 25 24 26 41 6z m1653 -7 c22 -11 56 -83 57 -116 0 -13 -7 -36
-15 -52 l-15 -28 -36 19 c-20 10 -41 20 -47 22 -5 1 4 17 22 34 17 17 31 37
30 45 0 7 -5 3 -11 -10 -6 -12 -22 -25 -35 -28 -31 -8 -38 -1 -16 17 11 9 14
10 9 2 -4 -7 -2 -13 3 -13 6 0 11 2 11 4 0 2 2 11 5 19 5 11 -4 14 -35 14 -42
0 -48 -5 -27 -26 10 -11 9 -13 -1 -7 -20 12 -42 63 -35 82 5 13 3 15 -8 9 -8
-5 -11 -5 -6 1 5 5 12 9 15 10 4 0 15 4 25 9 10 4 21 5 24 1 4 -3 -1 -6 -10
-6 -9 0 -21 -9 -27 -19 -17 -33 -11 -35 15 -7 13 14 28 26 33 26 11 0 37 -29
45 -50 4 -12 6 -11 6 3 1 10 -11 29 -26 43 l-28 26 30 -8 c17 -4 38 -11 48
-16z m-1889 -3 c-27 -20 -8 -19 28 3 29 17 30 17 49 -7 21 -25 25 -56 9 -66
-6 -3 -7 1 -4 10 7 17 -21 65 -38 65 -6 0 -4 -8 5 -18 24 -26 22 -55 -2 -47
-11 3 -22 1 -26 -5 -4 -7 -12 -7 -26 0 -26 14 -25 -4 1 -30 22 -22 13 -27 -13
-7 -9 6 -18 30 -20 52 l-4 40 -1 -42 c-2 -44 24 -82 57 -84 9 0 -6 -11 -34
-25 -49 -23 -50 -23 -69 -4 -24 24 -23 67 3 118 23 45 38 57 78 60 26 2 26 1
7 -13z m298 6 c-10 -6 -7 -10 12 -15 14 -3 26 -11 26 -17 0 -6 -4 -8 -9 -5 -4
3 -21 10 -37 16 -23 9 -25 13 -14 20 8 6 20 10 25 10 6 0 4 -4 -3 -9z m1329
-4 c-6 -8 -9 -17 -6 -21 3 -3 0 -2 -6 3 -12 10 -4 31 13 31 7 0 7 -4 -1 -13z
m-60 -14 c13 -15 12 -15 -11 -3 -34 17 -36 20 -18 20 9 0 22 -7 29 -17z
m-1516 -82 c-3 -6 -11 -11 -16 -11 -5 0 -4 6 3 14 14 16 24 13 13 -3z m1200
-12 c77 -5 141 -12 143 -13 10 -10 9 -46 -1 -46 -7 0 -6 -4 3 -10 8 -5 11 -10
5 -11 -5 -1 -174 -1 -375 0 -201 1 -431 -3 -512 -8 -81 -6 -153 -8 -161 -5
-16 6 -19 34 -3 34 6 0 5 4 -2 9 -34 21 34 35 273 54 100 8 504 6 630 -4z
m653 -113 c43 -22 59 -57 43 -93 -10 -21 -9 -28 1 -34 28 -17 -10 -24 -140
-26 l-137 -2 71 14 c80 15 137 40 131 58 -2 7 -30 22 -63 33 -32 12 -58 24
-57 28 1 3 4 19 8 35 l6 29 52 -12 c29 -7 67 -20 85 -30z m-1873 24 c-3 -5 -1
-10 5 -10 6 0 8 -4 5 -10 -3 -5 3 -15 14 -22 18 -11 15 -14 -32 -33 -86 -34
-61 -64 71 -89 l67 -13 -125 2 c-76 0 -133 5 -145 13 -19 11 -19 11 4 12 23 0
24 1 6 20 -23 25 -22 67 1 90 30 29 144 64 129 40z m228 -187 c-13 -2 -35 -2
-50 0 -16 2 -5 4 22 4 28 0 40 -2 28 -4z m1360 0 c-13 -2 -33 -2 -45 0 -13 2
-3 4 22 4 25 0 35 -2 23 -4z m-1215 -10 c-21 -2 -55 -2 -75 0 -21 2 -4 4 37 4
41 0 58 -2 38 -4z m1120 0 c-15 -2 -42 -2 -60 0 -18 2 -6 4 27 4 33 0 48 -2
33 -4z m-875 -10 c-35 -2 -91 -2 -125 0 -35 2 -7 3 62 3 69 0 97 -1 63 -3z
m675 0 c-32 -2 -84 -2 -115 0 -32 2 -6 3 57 3 63 0 89 -1 58 -3z m-295 -10
c-57 -2 -149 -2 -205 0 -57 1 -11 3 102 3 113 0 159 -2 103 -3z m-1861 -193
c233 0 309 -10 388 -50 99 -50 151 -133 151 -240 1 -112 -60 -199 -172 -249
-26 -12 -37 -22 -29 -24 130 -35 167 -53 221 -107 42 -42 58 -66 67 -102 25
-100 9 -181 -53 -263 -74 -96 -270 -166 -420 -150 -36 3 -63 10 -60 15 2 4 -8
10 -23 13 -16 3 -42 19 -59 34 -17 16 -36 27 -43 25 -8 -3 -10 0 -6 9 4 8 1 6
-7 -4 -8 -9 -21 -15 -30 -11 -8 3 -18 0 -22 -5 -3 -6 -11 -9 -16 -6 -5 4 -9 1
-9 -6 0 -8 -4 -8 -15 1 -8 7 -15 8 -15 3 0 -6 -10 -22 -23 -36 -16 -19 -38
-30 -80 -37 -95 -18 -106 11 -12 30 95 20 90 -12 93 562 l3 498 -24 24 c-15
15 -42 27 -70 31 -49 8 -74 26 -62 46 5 7 24 9 57 5 27 -4 148 -7 270 -6z
m1590 -21 c161 -45 267 -119 348 -244 127 -196 129 -482 3 -667 -108 -159
-301 -266 -498 -276 -245 -12 -492 102 -605 278 -105 164 -118 417 -29 598
131 268 462 399 781 311z m1162 0 c51 -12 97 -28 104 -37 9 -12 12 -51 10
-137 -3 -116 -4 -120 -25 -123 -19 -3 -23 1 -23 25 -1 40 -32 104 -74 151 -51
56 -122 84 -211 84 -140 0 -225 -67 -225 -177 0 -107 44 -149 268 -256 261
-125 337 -193 363 -322 14 -70 1 -151 -33 -199 -101 -145 -212 -198 -420 -198
-116 0 -247 24 -310 56 l-28 15 0 123 c0 100 3 125 15 129 17 7 20 3 30 -43
18 -88 106 -184 201 -220 101 -37 239 -24 315 32 105 77 105 241 1 329 -21 17
-118 70 -217 119 -207 102 -266 144 -307 217 -40 70 -43 180 -8 260 36 84 131
158 235 184 66 16 246 9 339 -12z m920 0 c137 -32 127 -20 124 -162 -3 -112
-5 -122 -22 -122 -14 0 -23 13 -33 50 -33 114 -123 188 -244 201 -114 11 -203
-29 -240 -110 -22 -48 -23 -66 -8 -121 15 -55 87 -121 179 -166 41 -20 118
-58 171 -84 122 -59 203 -124 243 -195 27 -48 31 -65 31 -130 0 -41 -6 -84
-12 -95 -10 -17 -11 -11 -6 32 3 29 0 73 -6 99 -12 47 -57 118 -70 109 -4 -2
-19 7 -34 21 -14 13 -35 24 -47 24 -11 0 -20 5 -20 10 0 6 8 10 18 10 13 0 10
6 -13 25 -16 14 -38 23 -48 21 -9 -2 -15 0 -11 5 6 10 3 11 -38 13 -15 1 -26
-2 -25 -7 1 -6 -18 -17 -43 -26 -46 -17 -61 -38 -38 -52 10 -7 9 -9 -4 -9 -25
0 -248 115 -290 150 -79 66 -117 207 -84 308 34 101 101 162 221 204 73 25
232 24 349 -3z m-144 -679 c8 -5 11 -10 5 -10 -5 0 -17 5 -25 10 -8 5 -10 10
-5 10 6 0 17 -5 25 -10z m206 -177 c33 -77 2 -212 -59 -260 -15 -11 -23 -24
-19 -28 4 -5 1 -5 -6 -1 -7 4 -23 1 -35 -7 -30 -19 -116 -37 -181 -37 -59 0
-160 36 -212 75 -18 14 -45 25 -61 24 -23 0 -25 -2 -9 -8 19 -7 19 -8 0 -15
-16 -6 -13 -10 21 -22 48 -16 58 -17 50 -4 -3 6 -2 10 4 10 5 0 13 -4 16 -10
3 -5 0 -10 -7 -10 -9 0 -9 -3 2 -10 20 -13 8 -12 -27 1 -15 6 -50 17 -78 23
l-50 11 -3 124 c-1 73 1 128 7 134 14 14 41 -10 41 -37 0 -35 48 -122 86 -156
63 -55 131 -83 217 -88 91 -5 152 9 207 49 82 60 108 175 60 269 l-23 45 23
-20 c13 -11 29 -34 36 -52z m-3866 -293 c0 -5 -5 -10 -11 -10 -5 0 -7 5 -4 10
3 6 8 10 11 10 2 0 4 -4 4 -10z"/>
<path d="M3966 5587 c-27 -108 -86 -244 -141 -326 -78 -119 -156 -160 -242
-129 -57 20 -55 12 3 -13 41 -19 51 -19 97 -8 119 28 237 216 292 462 22 99
15 110 -9 14z"/>
<path d="M4715 5630 c-17 -7 -15 -9 12 -9 17 -1 35 4 38 9 7 12 -22 12 -50 0z"/>
<path d="M3250 5620 c0 -5 4 -10 9 -10 6 0 13 5 16 10 3 6 -1 10 -9 10 -9 0
-16 -4 -16 -10z"/>
<path d="M4050 5494 c0 -18 47 -151 74 -204 82 -164 172 -228 278 -199 32 8
61 29 115 84 44 45 70 66 68 53 -6 -27 -44 -88 -56 -88 -6 0 -8 -4 -5 -8 3 -5
-10 -23 -28 -41 l-34 -33 24 -41 c13 -23 24 -50 24 -59 0 -24 7 -23 44 6 17
13 42 26 54 31 21 6 23 11 18 38 -13 64 -19 210 -8 203 10 -6 26 23 17 32 -3
3 -5 -1 -5 -8 0 -7 -3 -11 -6 -7 -4 3 3 21 14 39 20 33 48 175 40 199 -3 8
-11 -6 -18 -31 -20 -73 -96 -212 -137 -252 -46 -44 -135 -88 -181 -88 -50 0
-93 22 -139 73 -50 54 -75 101 -119 222 -18 50 -33 85 -34 79z"/>
<path d="M5333 5489 c-10 -10 -58 -21 -94 -23 -22 0 -13 -24 13 -32 27 -8 74
13 93 42 16 24 8 33 -12 13z"/>
<path d="M5240 5410 c0 -5 5 -10 11 -10 5 0 7 5 4 10 -3 6 -8 10 -11 10 -2 0
-4 -4 -4 -10z"/>
<path d="M3994 5265 c-22 -63 -68 -147 -89 -163 -33 -26 -31 -37 6 -52 17 -7
44 -30 61 -51 l31 -38 27 38 c15 21 42 43 59 51 38 15 39 27 5 60 -37 34 -52
59 -74 121 -15 44 -20 50 -26 34z"/>
<path d="M5140 5272 c0 -23 -3 -27 -62 -104 -103 -133 -166 -178 -248 -178
-84 0 -139 53 -166 160 -10 38 -22 70 -26 70 -11 0 -9 -94 2 -150 9 -46 -6
-90 -31 -90 -6 0 -27 -13 -46 -30 -45 -40 -71 -39 -64 3 0 4 -4 7 -10 7 -5 0
-8 4 -5 9 3 5 -1 11 -9 15 -11 4 -15 -2 -15 -24 0 -17 -5 -30 -12 -30 -9 0 -8
-4 2 -10 12 -8 10 -10 -10 -10 -52 -1 7 -19 131 -40 143 -24 298 -57 350 -75
34 -12 35 -12 35 14 -1 14 -5 29 -11 33 -6 5 -5 8 3 8 6 0 12 4 12 9 0 4 -12
6 -27 4 l-28 -5 28 20 c20 14 36 40 53 88 13 37 22 70 20 71 -2 2 -13 -11 -25
-30 -18 -30 -60 -67 -75 -67 -2 0 22 27 52 59 31 33 58 58 60 56 2 -1 4 -17 4
-35 1 -18 4 -26 9 -19 4 7 5 17 3 23 -3 7 4 21 13 31 10 11 40 62 66 114 34
66 45 97 38 104 -8 8 -11 7 -11 -1z m-386 -331 c20 -22 15 -35 -17 -52 -18 -9
-20 -9 -9 2 28 30 4 67 -26 37 -17 -17 -28 -2 -12 17 17 21 43 19 64 -4z"/>
<path d="M3390 5193 c-1 -44 -8 -88 -24 -153 -5 -22 1 -29 52 -61 l58 -36 28
59 27 59 -44 48 c-25 27 -55 67 -66 90 -12 22 -24 41 -26 41 -3 0 -5 -21 -5
-47z"/>
<path d="M3266 4924 c-3 -8 -10 -12 -16 -9 -5 3 -10 0 -10 -9 0 -16 19 -25 38
-18 14 5 16 38 3 46 -5 3 -12 -1 -15 -10z"/>
<path d="M2663 5455 c6 -18 74 -30 91 -15 26 21 19 25 -39 25 -32 0 -54 -4
-52 -10z"/>
<path d="M4950 4681 c0 -6 5 -13 10 -16 6 -3 10 1 10 9 0 9 -4 16 -10 16 -5 0
-10 -4 -10 -9z"/>
<path d="M3956 4689 c-57 -45 -50 -111 14 -144 41 -21 55 -19 84 16 35 41 35
88 0 123 -32 32 -62 33 -98 5z m97 -37 c20 -33 20 -34 0 -60 -22 -29 -42 -37
-77 -28 -26 6 -48 48 -39 73 22 63 84 70 116 15z"/>
<path d="M3956 4595 c10 -24 53 -30 72 -10 16 16 15 17 -13 12 -16 -3 -38 -1
-47 4 -14 7 -16 6 -12 -6z"/>
<path d="M4272 4609 c-7 -10 -8 -19 -3 -19 13 0 33 28 23 33 -4 3 -13 -3 -20
-14z"/>
<path d="M3746 4611 c-4 -6 -13 -8 -21 -4 -19 7 -19 -11 -1 -26 12 -10 17 -8
26 9 12 22 8 40 -4 21z"/>
<path d="M3802 4594 c-35 -24 -25 -35 12 -13 29 17 38 18 58 8 21 -11 22 -11
9 4 -17 21 -50 22 -79 1z"/>
<path d="M4115 4594 c-19 -14 -18 -15 20 -13 22 1 49 -1 60 -5 17 -7 17 -5 -4
13 -27 25 -48 26 -76 5z"/>
<path d="M3595 4589 c-11 -16 -2 -19 38 -12 20 3 34 9 31 14 -7 13 -62 11 -69
-2z"/>
<path d="M4328 4589 c-26 -15 -22 -30 7 -23 13 3 39 1 57 -5 l33 -11 -28 25
c-31 27 -43 30 -69 14z"/>
<path d="M2264 3907 c-2 -7 -3 -118 -2 -247 l3 -235 90 0 c78 0 98 4 140 26
74 37 107 96 113 198 4 69 1 86 -21 133 -27 59 -73 102 -134 124 -50 17 -182
19 -189 1z"/>
<path d="M2261 3158 c0 -236 6 -262 63 -295 123 -68 295 -20 355 101 35 71 34
175 -4 252 -50 103 -139 144 -312 144 l-103 0 1 -202z"/>
<path d="M3527 3910 c-66 -17 -131 -56 -183 -112 -61 -64 -74 -88 -105 -188
-33 -107 -34 -290 -1 -405 90 -311 330 -460 585 -365 122 46 221 180 248 337
15 88 7 274 -15 358 -42 158 -138 285 -260 345 -54 27 -79 33 -148 36 -46 2
-100 -1 -121 -6z"/>
<path d="M5147 3133 c-4 -6 -4 -18 -1 -27 3 -9 1 -16 -5 -16 -6 0 -12 10 -12
23 -1 19 -2 19 -6 3 -4 -15 -7 -16 -15 -5 -6 10 -7 3 -3 -21 l6 -35 -15 33
c-8 17 -16 32 -18 32 -2 0 -2 -28 -1 -62 1 -35 -4 -84 -12 -110 -13 -44 -13
-48 4 -48 24 0 58 34 76 78 16 37 18 179 2 155z m-40 -125 c-3 -8 -6 -5 -6 6
-1 11 2 17 5 13 3 -3 4 -12 1 -19z"/>
<path d="M4605 2790 c3 -5 18 -10 32 -10 32 0 28 5 -10 14 -19 4 -26 3 -22 -4z"/>
<path d="M5397 2897 c-3 -8 1 -14 9 -14 16 0 19 13 5 21 -5 3 -11 0 -14 -7z"/>
</g>
</svg>
